<svg height="4832" width="624"><defs><marker id="triangle" viewBox="0 0 14 14" refX="0" refY="5" markerUnits="strokeWidth" markerWidth="10" markerHeight="10" orient="auto"><path d="M 0 0 L 10 5 L 0 10 z"></path></marker></defs><path d="M 4 40 L 8 40M 4 40 L 4 48 M 8 40 L 56 40 M 56 40 L 60 40L 60 48 M 92 40 L 96 40M 92 40 L 92 48 M 96 40 L 136 40 M 136 40 L 140 40L 140 48 M 172 40 L 176 40M 172 40 L 172 48 M 176 40 L 216 40 M 216 40 L 220 40L 220 48 M 252 40 L 256 40M 252 40 L 252 48 M 256 40 L 296 40 M 296 40 L 300 40L 300 48 M 4 48 L 4 96 M 60 48 L 60 64 M 92 48 L 92 96 M 140 48 L 140 64 M 172 48 L 172 64 M 220 48 L 220 96 M 252 48 L 252 64 M 300 48 L 300 96 M 60 64 L 60 80M 60 72 L 64 72 M 64 72 L 80 72 M 80 72 M 140 64 L 140 80M 140 72 L 144 72 M 144 72 L 168 72 M 172 64 L 172 80M 168 72 L 172 72 M 232 72 M 232 72 L 248 72 M 252 64 L 252 80M 248 72 L 252 72 M 60 80 L 60 96 M 140 80 L 140 96 M 172 80 L 172 96 M 252 80 L 252 96 M 4 96 L 4 104L 8 104 M 8 104 L 56 104 M 56 104 L 60 104L 60 96 M 92 96 L 92 104L 96 104 M 96 104 L 136 104 M 136 104 L 140 104L 140 96 M 172 96 L 172 104L 176 104 M 176 104 L 192 104 M 192 104 L 200 104M 196 104 L 196 112 M 200 104 L 216 104 M 216 104 L 220 104L 220 96 M 252 96 L 252 104L 256 104 M 256 104 L 296 104 M 296 104 L 300 104L 300 96 M 116 128 M 196 112 L 196 128 M 116 128 L 116 144 M 196 128 M 8 152 A 4 4 0 0 0 4 156L 4 160 M 8 152 L 112 152 M 116 144 L 116 152M 112 152 L 120 152 M 120 152 L 304 152 M 308 156 A 4 4 0 0 0 304 152M 308 156 L 308 160 M 4 160 L 4 176 M 308 160 L 308 176 M 4 180 A 4 4 0 0 0 8 184M 4 176 L 4 180 M 8 184 L 304 184 M 304 184 A 4 4 0 0 0 308 180M 308 176 L 308 180 M 192 240 L 288 240 M 32 248 A 8 8 0 0 0 26 252M 24 256 L 26 252 M 32 248 L 144 248 M 150 252 A 8 8 0 0 0 144 248M 152 256 L 150 252 M 192 240 L 208 272 M 288 240 L 304 272 M 16 272 L 24 256 M 48 264 M 152 256 L 160 272 M 344 272 L 424 272 M 16 272 A 16 16 0 0 0 16 288 M 160 288 A 16 16 0 0 0 160 272 M 208 288 A 16 16 0 0 0 208 272 M 304 288 A 16 16 0 0 0 304 272 M 344 272 L 352 288 M 424 272 L 432 288 M 16 288 L 24 304 M 152 304 L 160 288 M 26 308 A 8 8 0 0 0 32 312M 24 304 L 26 308 M 32 312 L 144 312 M 144 312 A 8 8 0 0 0 150 308L 152 304 M 192 320 L 208 288 M 208 320 L 192 320 M 208 320 L 288 320 M 288 320 L 304 288 M 336 320 L 352 288 M 352 320 L 336 320 M 352 320 L 416 320 M 416 320 L 432 288 M 32 368 L 176 368 M 32 368 L 48 400 M 176 368 L 192 400 M 48 400 L 50 404M 50 412 A 8 8 0 0 0 50 404M 48 416 L 50 412 M 192 400 L 194 404M 194 412 A 8 8 0 0 0 194 404M 192 416 L 194 412 M 32 448 L 48 416 M 48 448 L 32 448 M 48 448 L 176 448 M 176 448 L 192 416 M 112 480 M 232 480 M 112 480 L 136 528 M 224 496 L 232 480 M 200 504 A 8 8 0 0 0 194 508M 192 512 L 194 508 M 200 504 L 216 504 M 216 504 A 8 8 0 0 0 222 500L 224 496 M 184 528 L 192 512 M 112 536 M 112 536 L 136 536 M 184 536 L 216 536 M 216 536 M 128 560 L 136 544 M 184 544 L 200 576 M 104 568 A 8 8 0 0 0 98 572M 96 576 L 98 572 M 104 568 L 120 568 M 120 568 A 8 8 0 0 0 126 564L 128 560 M 200 576 L 224 576 M 88 592 L 96 576 M 224 576 L 232 592 M 88 592 M 232 592 M 112 648 L 136 648 M 168 648 L 192 648 M 216 648 L 240 648 M 272 648 L 296 648 M 344 648 L 368 648 M 400 648 L 424 648 M 112 664 L 136 664 M 168 664 L 192 664 M 216 664 L 240 664 M 272 664 L 296 664 M 344 664 L 368 664 M 400 664 L 424 664 M 124 672 L 124 688 M 180 672 L 180 688 M 228 672 L 228 800 M 284 672 L 284 688 M 356 672 L 356 768 M 412 672 L 412 688 M 124 688 M 180 688 M 284 688 M 412 688 M 112 712 A 4 4 0 0 0 108 716L 108 720 M 112 712 L 208 712 M 212 716 A 4 4 0 0 0 208 712M 212 716 L 212 720 M 248 712 A 4 4 0 0 0 244 716L 244 720 M 248 712 L 336 712 M 340 716 A 4 4 0 0 0 336 712M 340 716 L 340 720 M 384 712 A 4 4 0 0 0 380 716L 380 720 M 384 712 L 424 712 M 428 716 A 4 4 0 0 0 424 712M 428 716 L 428 720 M 108 720 L 108 736 M 212 720 L 212 736 M 244 720 L 244 736 M 340 720 L 340 736 M 380 720 L 380 736 M 428 720 L 428 736 M 108 740 A 4 4 0 0 0 112 744M 108 736 L 108 740 M 112 744 L 208 744 M 208 744 A 4 4 0 0 0 212 740M 212 736 L 212 740 M 244 740 A 4 4 0 0 0 248 744M 244 736 L 244 740 M 248 744 L 336 744 M 336 744 A 4 4 0 0 0 340 740M 340 736 L 340 740 M 380 740 A 4 4 0 0 0 384 744M 380 736 L 380 740 M 384 744 L 424 744 M 424 744 A 4 4 0 0 0 428 740M 428 736 L 428 740 M 164 752 L 164 768 M 284 752 L 284 848 M 164 768 M 356 768 M 144 792 A 4 4 0 0 0 140 796L 140 800 M 144 792 L 176 792 M 180 796 A 4 4 0 0 0 176 792M 180 796 L 180 800 M 328 792 A 4 4 0 0 0 324 796L 324 800 M 328 792 L 400 792 M 404 796 A 4 4 0 0 0 400 792M 404 796 L 404 800 M 140 800 L 140 816 M 180 800 L 180 816 M 192 808 M 192 808 L 224 808 M 224 808 A 4 4 0 0 0 228 804M 228 800 L 228 804 M 324 800 L 324 816 M 404 800 L 404 816 M 140 820 A 4 4 0 0 0 144 824M 140 816 L 140 820 M 144 824 L 176 824 M 176 824 A 4 4 0 0 0 180 820M 180 816 L 180 820 M 324 820 A 4 4 0 0 0 328 824M 324 816 L 324 820 M 328 824 L 400 824 M 400 824 A 4 4 0 0 0 404 820M 404 816 L 404 820 M 164 832 L 164 848 M 364 832 L 364 848 M 164 848 M 284 848 M 364 848 M 112 872 A 4 4 0 0 0 108 876L 108 880 M 112 872 L 424 872 M 428 876 A 4 4 0 0 0 424 872M 428 876 L 428 880 M 108 880 L 108 896 M 428 880 L 428 896 M 108 900 A 4 4 0 0 0 112 904M 108 896 L 108 900 M 112 904 L 424 904 M 424 904 A 4 4 0 0 0 428 900M 428 896 L 428 900 M 32 960 L 20 960 M 32 960 L 56 960 M 20 960 L 20 1056 M 40 976 L 28 976 M 40 976 L 60 976 M 68 960 L 68 1056 M 28 976 L 28 1008 M 60 976 L 60 1008 M 40 1008 L 28 1008 M 40 1008 L 60 1008 M 72 1016 L 536 1016 M 540 1020 A 4 4 0 0 0 536 1016M 540 1020 L 540 1024 M 108 1024 L 108 1088 M 324 1024 L 324 1088 M 540 1024 L 540 1088 M 20 1056 L 20 1068A 4 4 0 0 0 24 1072 M 24 1072 L 64 1072 M 64 1072 A 4 4 0 0 0 68 1068L 68 1056 M 108 1088 M 324 1088 M 540 1088 M 32 1112 A 4 4 0 0 0 28 1116L 28 1120 M 32 1112 L 184 1112 M 188 1116 A 4 4 0 0 0 184 1112M 188 1116 L 188 1120 M 216 1112 A 4 4 0 0 0 212 1116L 212 1120 M 216 1112 L 432 1112 M 436 1116 A 4 4 0 0 0 432 1112M 436 1116 L 436 1120 M 464 1112 A 4 4 0 0 0 460 1116L 460 1120 M 464 1112 L 616 1112 M 620 1116 A 4 4 0 0 0 616 1112M 620 1116 L 620 1120 M 28 1120 L 28 1136 M 188 1120 L 188 1136 M 212 1120 L 212 1168 M 436 1120 L 436 1216 M 460 1120 L 460 1152 M 620 1120 L 620 1152 M 28 1140 A 4 4 0 0 0 32 1144M 28 1136 L 28 1140 M 32 1144 L 184 1144 M 184 1144 A 4 4 0 0 0 188 1140M 188 1136 L 188 1140 M 216 1144 L 432 1144 M 108 1152 L 108 1168 M 296 1160 A 4 4 0 0 0 292 1164L 292 1168 M 296 1160 L 336 1160 M 340 1164 A 4 4 0 0 0 336 1160M 340 1164 L 340 1168 M 460 1156 A 4 4 0 0 0 464 1160M 460 1152 L 460 1156 M 464 1160 L 616 1160 M 616 1160 A 4 4 0 0 0 620 1156M 620 1152 L 620 1156 M 108 1172 A 4 4 0 0 0 112 1176M 108 1168 L 108 1172 M 112 1176 L 208 1176 M 208 1176 L 216 1176M 212 1168 L 212 1184 M 216 1176 L 280 1176 M 280 1176 M 292 1168 L 292 1184 M 340 1168 L 340 1184 M 548 1168 L 548 1216 M 212 1184 L 212 1248 M 292 1188 A 4 4 0 0 0 296 1192M 292 1184 L 292 1188 M 296 1192 L 336 1192 M 336 1192 A 4 4 0 0 0 340 1188M 340 1184 L 340 1188 M 256 1208 A 8 8 0 0 0 250 1212M 248 1216 L 250 1212 M 256 1208 L 400 1208 M 402 1212 A 4 4 0 0 0 400 1208M 400 1216 L 402 1212 M 240 1232 L 248 1216 M 392 1232 L 400 1216 M 408 1224 M 408 1224 L 432 1224 M 432 1224 L 440 1224M 436 1216 L 436 1232 M 440 1224 L 544 1224 M 544 1224 A 4 4 0 0 0 548 1220M 548 1216 L 548 1220 M 238 1236 A 4 4 0 0 0 240 1240M 238 1236 L 240 1232 M 240 1240 L 384 1240 M 384 1240 A 8 8 0 0 0 390 1236L 392 1232 M 436 1232 L 436 1248 M 212 1252 A 4 4 0 0 0 216 1256M 212 1248 L 212 1252 M 216 1256 L 432 1256 M 432 1256 A 4 4 0 0 0 436 1252M 436 1248 L 436 1252 M 328 1304 A 8 8 0 0 0 322 1308M 320 1312 L 322 1308 M 328 1304 L 344 1304 M 344 1304 M 396 1296 M 404 1296 M 452 1296 M 460 1296 M 520 1312 L 528 1312 M 312 1328 L 320 1312 M 304 1344 L 312 1328M 312 1336 A 8 8 0 0 0 306 1340 M 312 1336 L 344 1336 M 344 1336 M 396 1328 M 404 1328 M 452 1328 M 460 1328 M 520 1344 L 528 1344 M 128 1352 L 184 1352 M 190 1356 A 8 8 0 0 0 184 1352M 192 1360 L 190 1356 M 376 1344 L 384 1360 M 192 1360 L 240 1456 M 384 1360 L 392 1376M 392 1368 L 390 1368M 386 1364 A 8 8 0 0 0 390 1368 M 392 1368 L 416 1368 M 416 1368 M 468 1360 M 476 1360 M 524 1360 M 532 1360 M 124 1376 M 132 1376 M 392 1376 L 400 1392 M 96 1392 L 128 1456 M 402 1396 A 8 8 0 0 0 408 1400M 400 1392 L 402 1396 M 408 1400 L 424 1400 M 424 1400 M 476 1392 M 484 1392 M 532 1392 M 540 1392 M 264 1424 L 304 1344 M 256 1440 L 264 1424M 264 1432 A 8 8 0 0 0 258 1436 M 264 1432 L 352 1432 M 352 1432 M 404 1424 M 412 1424 M 460 1424 M 468 1424 M 528 1440 L 536 1440 M 248 1456 L 256 1440 M 130 1460 A 8 8 0 0 0 136 1464M 128 1456 L 130 1460 M 136 1464 L 184 1464 M 228 1456 M 236 1456 M 184 1488 L 192 1472 M 208 1472 L 288 1632 M 224 1472 L 280 1584 M 240 1472 L 264 1520 M 184 1488 L 182 1492A 16 16 0 0 0 180 1500M 180 1504 L 180 1500 M 180 1504 L 180 1520 M 180 1520 L 180 1536M 176 1536 L 178 1532A 16 16 0 0 0 180 1524 M 266 1524 A 8 8 0 0 0 272 1528M 264 1520 L 266 1524 M 272 1528 L 296 1528 M 332 1520 M 340 1520 M 168 1552 L 176 1536 M 180 1536 L 180 1552 M 312 1536 L 320 1552 M 44 1552 M 52 1552 M 92 1552 M 100 1552 M 180 1552 L 180 1568M 176 1568 L 178 1564A 16 16 0 0 0 180 1556 M 322 1556 A 8 8 0 0 0 328 1560M 320 1552 L 322 1556 M 328 1560 L 360 1560 M 396 1552 M 404 1552 M 460 1552 M 468 1552 M 168 1584 L 176 1568 M 180 1568 L 180 1584 M 108 1584 M 116 1584 M 180 1584 L 180 1600M 176 1600 L 178 1596A 16 16 0 0 0 180 1588 M 282 1588 A 8 8 0 0 0 288 1592M 280 1584 L 282 1588 M 288 1592 L 296 1592 M 316 1584 M 324 1584 M 348 1584 M 356 1584 M 420 1584 M 428 1584 M 460 1584 M 468 1584 M 492 1584 M 500 1584 M 168 1616 L 176 1600 M 180 1600 L 180 1616 M 108 1616 M 116 1616 M 176 1632 L 178 1628A 16 16 0 0 0 180 1620M 180 1616 L 180 1620 M 168 1648 L 176 1632 M 290 1636 A 8 8 0 0 0 296 1640M 288 1632 L 290 1636 M 296 1640 L 320 1640 M 364 1632 M 372 1632 M 92 1648 M 100 1648 M 168 1648 M 36 1712 M 36 1712 L 36 1776 M 36 1776 L 36 1784L 40 1784 M 40 1784 L 272 1784 M 272 1784 M 36 1824 M 40 1896 M 52 1984 M 56 2032 M 68 2032 M 80 2032 M 56 2032 L 64 2048 M 68 2032 L 68 2048 M 72 2048 L 80 2032 M 68 2048 L 68 2064M 64 2048 L 72 2064M 64 2064 L 72 2048 M 56 2080 L 64 2064 M 68 2064 L 68 2080 M 72 2064 L 80 2080 M 56 2080 M 68 2080 M 80 2080 M 56 2128 M 68 2128 M 80 2128 M 56 2128 L 64 2144 M 68 2128 L 68 2144 M 72 2144 L 80 2128 M 56 2152 M 56 2152 L 64 2152 M 64 2152 L 72 2152M 68 2144 L 68 2160M 64 2144 L 72 2160M 64 2160 L 72 2144 M 72 2152 L 80 2152 M 80 2152 M 56 2176 L 64 2160 M 68 2160 L 68 2176 M 72 2160 L 80 2176 M 56 2176 M 68 2176 M 80 2176 M 68 2208 L 68 2224 M 96 2208 L 112 2240 M 56 2232 L 64 2232 M 64 2232 L 72 2232M 68 2224 L 68 2240 M 72 2232 L 80 2232 M 96 2240 L 112 2208 M 68 2240 L 68 2256 M 68 2272 L 68 2288 M 124 2272 L 124 2288 M 164 2272 L 164 2288 M 220 2272 L 220 2288 M 68 2288 L 68 2296L 72 2296 M 72 2296 L 88 2296 M 104 2296 L 120 2296 M 120 2296 L 124 2296L 124 2288 M 164 2288 L 164 2304M 164 2296 L 168 2296 M 168 2296 L 184 2296 M 200 2296 L 216 2296 M 220 2288 L 220 2304M 216 2296 L 220 2296 M 252 2296 L 256 2296M 252 2296 L 252 2304 M 256 2296 L 272 2296 M 288 2296 L 304 2296 M 304 2296 L 308 2296L 308 2304 M 164 2304 L 164 2320 M 220 2304 L 220 2320 M 252 2304 L 252 2320 M 308 2304 L 308 2320 M 172 2336 L 172 2352 M 212 2336 L 212 2352 M 236 2336 L 236 2352 M 284 2336 L 284 2352 M 112 2360 A 4 4 0 0 0 108 2364L 108 2368 M 112 2360 L 120 2360 M 128 2360 L 136 2360 M 140 2364 A 4 4 0 0 0 136 2360M 140 2364 L 140 2368 M 172 2356 A 4 4 0 0 0 176 2360M 172 2352 L 172 2356 M 176 2360 L 184 2360 M 200 2360 L 208 2360 M 208 2360 A 4 4 0 0 0 212 2356M 212 2352 L 212 2356 M 236 2352 L 236 2364A 4 4 0 0 0 240 2368 M 240 2368 L 248 2368 M 272 2368 L 280 2368 M 280 2368 A 4 4 0 0 0 284 2364L 284 2352 M 108 2368 L 108 2384 M 140 2368 L 140 2384 M 72 2408 L 80 2408 M 104 2408 L 112 2408 M 144 2408 A 4 4 0 0 0 140 2412L 140 2416 M 152 2408 A 16 16 0 0 0 144 2408 M 156 2412 A 4 4 0 0 0 152 2408M 156 2412 L 156 2416 M 72 2424 L 80 2424 M 104 2424 L 112 2424 M 140 2416 L 140 2432 M 156 2416 L 156 2432 M 180 2416 L 180 2432 M 196 2416 L 196 2432 M 180 2436 A 4 4 0 0 0 184 2440M 180 2432 L 180 2436 M 184 2440 A 16 16 0 0 0 192 2440 M 192 2440 A 4 4 0 0 0 196 2436M 196 2432 L 196 2436 M 48 2464 L 56 2480 M 108 2464 L 108 2480 M 144 2480 L 152 2464 M 172 2464 L 172 2480 M 60 2496 L 60 2492A 16 16 0 0 0 58 2484L 56 2480 M 104 2496 L 106 2492A 16 16 0 0 0 108 2484M 108 2480 L 108 2484 M 144 2480 L 142 2484A 16 16 0 0 0 140 2492M 140 2496 L 140 2492 M 60 2496 L 60 2512 M 96 2512 L 104 2496 M 140 2496 L 140 2512 M 176 2496 L 184 2512 M 64 2528 L 72 2544 M 104 2544 L 112 2528 M 72 2544 L 74 2548M 74 2556 A 8 8 0 0 0 74 2548M 72 2560 L 74 2556 M 104 2544 L 102 2548A 8 8 0 0 0 102 2556L 104 2560 M 64 2576 L 72 2560 M 104 2560 L 112 2576 M 48 2624 L 56 2608 M 60 2608 L 60 2624 M 100 2608 L 100 2624 M 104 2608 L 112 2624 M 48 2656 L 56 2672 M 60 2656 L 60 2672 M 92 2656 L 92 2672 M 96 2672 L 104 2656 M 56 2704 L 64 2720 M 56 2736 L 64 2720 M 56 2768 L 64 2752 M 56 2768 L 64 2784 M 56 2832 L 64 2816 M 112 2816 L 120 2832 M 48 2848 L 56 2832M 56 2840 A 8 8 0 0 0 50 2844 M 56 2840 L 72 2840 M 104 2840 L 120 2840 M 126 2844 A 8 8 0 0 0 120 2840M 128 2848 L 126 2844 M 40 2864 L 48 2848 M 128 2848 L 136 2864 M 56 2896 L 64 2880 M 88 2880 L 96 2896 M 32 2904 L 48 2904 M 50 2908 A 4 4 0 0 0 48 2904M 48 2912 L 50 2908 M 96 2896 L 104 2912M 104 2904 L 102 2904M 98 2900 A 8 8 0 0 0 102 2904 M 104 2904 L 120 2904 M 40 2928 L 48 2912 M 104 2912 L 112 2928 M 184 2944 L 192 2960 M 264 2960 L 272 2944 M 56 2968 L 72 2968 M 74 2972 A 4 4 0 0 0 72 2968M 72 2976 L 74 2972 M 80 2968 L 96 2968 M 112 2968 L 128 2968 M 134 2972 A 8 8 0 0 0 128 2968M 136 2976 L 134 2972 M 136 2968 L 152 2968 M 176 2968 L 192 2968 M 194 2964 A 8 8 0 0 0 200 2968M 192 2960 L 194 2964 M 200 2968 L 216 2968 M 240 2968 L 256 2968 M 262 2964 A 4 4 0 0 0 264 2968M 262 2964 L 264 2960 M 264 2968 L 280 2968 M 64 2992 L 72 2976 M 136 2976 L 144 2992 M 68 3024 L 68 3040 M 100 3024 L 100 3040 M 68 3040 L 68 3056M 64 3056 L 66 3052A 16 16 0 0 0 68 3044 M 56 3072 L 64 3056 M 68 3056 L 68 3072 M 100 3056 L 100 3072 M 104 3056 L 112 3072 M 68 3088 L 68 3104 M 64 3120 L 66 3116A 16 16 0 0 0 68 3108M 68 3104 L 68 3108 M 56 3136 L 64 3120 M 72 3120 L 80 3136 M 56 3152 L 64 3168 M 68 3152 L 68 3168 M 72 3168 L 80 3152 M 68 3168 L 68 3184M 64 3168 L 72 3184M 64 3184 L 72 3168 M 56 3200 L 64 3184 M 68 3184 L 68 3200 M 72 3184 L 80 3200 M 56 3232 L 64 3248 M 68 3232 L 68 3248 M 72 3248 L 80 3232 M 48 3256 L 64 3256 M 64 3256 L 72 3256M 68 3248 L 68 3264M 64 3248 L 72 3264M 64 3264 L 72 3248 M 72 3256 L 88 3256 M 56 3280 L 64 3264 M 68 3264 L 68 3280 M 72 3264 L 80 3280 M 56 3296 L 64 3312 M 68 3296 L 68 3312 M 72 3312 L 80 3296 M 48 3320 L 64 3320 M 64 3320 L 72 3320M 68 3312 L 68 3328M 64 3312 L 72 3328M 64 3328 L 72 3312 M 72 3320 L 88 3320 M 56 3344 L 64 3328 M 68 3328 L 68 3344 M 72 3328 L 80 3344 M 68 3360 L 68 3376 M 72 3376 L 80 3360 M 96 3360 L 104 3376 M 108 3360 L 108 3376 M 72 3376 L 70 3380A 16 16 0 0 0 68 3388M 68 3392 L 68 3388 M 108 3392 L 108 3388A 16 16 0 0 0 106 3380L 104 3376 M 68 3392 L 68 3408 M 108 3392 L 108 3408 M 56 3448 L 64 3448 M 66 3452 A 4 4 0 0 0 64 3448M 64 3456 L 66 3452 M 88 3448 L 96 3448 M 102 3452 A 8 8 0 0 0 96 3448M 104 3456 L 102 3452 M 56 3472 L 64 3456 M 104 3456 L 112 3472 M 72 3496 A 8 8 0 0 0 66 3500M 64 3504 L 66 3500 M 72 3496 L 80 3496 M 104 3496 L 112 3496 M 56 3520 L 64 3504 M 104 3504 L 112 3520 M 56 3568 L 64 3552 M 88 3568 L 96 3552 M 136 3552 L 144 3568 M 176 3552 L 184 3568 M 54 3572 A 4 4 0 0 0 56 3576M 54 3572 L 56 3568 M 56 3576 L 64 3576 M 88 3584 L 96 3584 M 136 3584 L 144 3584 M 176 3576 L 184 3576 M 64 3624 A 16 16 0 0 0 54 3632 M 72 3624 A 16 16 0 0 0 64 3624 M 72 3624 A 16 16 0 0 1 82 3632 M 54 3632 A 16 16 0 0 0 54 3648 M 82 3632 A 16 16 0 0 1 82 3648 M 54 3648 A 16 16 0 0 0 64 3656 M 64 3656 A 16 16 0 0 0 72 3656 M 72 3656 A 16 16 0 0 0 82 3648 M 54 3696 A 16 16 0 0 0 54 3712 M 74 3696 A 16 16 0 0 1 74 3712 M 64 3768 A 16 16 0 0 0 54 3776 M 64 3768 L 112 3768 M 112 3768 A 16 16 0 0 1 122 3776 M 54 3776 A 16 16 0 0 0 54 3792 M 122 3776 A 16 16 0 0 1 122 3792 M 54 3792 A 16 16 0 0 0 64 3800 M 64 3800 L 112 3800 M 112 3800 A 16 16 0 0 0 122 3792 M 64 3840 L 128 3840 M 40 3888 L 64 3840 M 56 3888 L 40 3888 M 56 3888 L 104 3888 M 104 3888 L 128 3840 M 64 3936 L 128 3936 M 64 3936 L 88 3984 M 128 3936 L 152 3984 M 88 3984 L 152 3984 M 64 4016 L 52 4016 M 64 4016 L 124 4016 M 52 4016 L 52 4032 M 64 4032 L 52 4032 M 64 4032 L 124 4032 M 124 4016 L 124 4032 M 64 4080 L 52 4080 M 64 4080 L 124 4080 M 52 4080 L 52 4112 M 124 4080 L 124 4112 M 64 4112 L 52 4112 M 64 4112 L 124 4112 M 64 4136 A 16 16 0 0 0 56 4136 M 56 4152 A 16 16 0 0 0 64 4152 M 64 4192 L 128 4192 M 64 4192 L 72 4208 M 72 4208 L 136 4208 M 128 4192 L 136 4208 M 64 4224 L 88 4272 M 40 4272 L 64 4224 M 56 4272 L 40 4272 M 56 4272 L 88 4272 M 64 4288 L 88 4336 M 40 4336 L 64 4288 M 38 4340 A 4 4 0 0 0 40 4344M 38 4340 L 40 4336 M 40 4344 L 88 4344 M 56 4384 L 80 4384 M 48 4400 L 56 4384 M 80 4384 L 88 4400 M 48 4400 L 56 4416 M 56 4416 L 80 4416 M 80 4416 L 88 4400 M 48 4448 L 96 4448 M 96 4448 L 112 4480 M 32 4480 L 48 4448 M 32 4480 L 48 4512 M 48 4512 L 96 4512 M 96 4512 L 112 4480 M 68 4552 L 72 4552M 68 4552 L 68 4560 M 72 4552 L 144 4552 M 144 4552 L 148 4552L 148 4560 M 68 4560 L 68 4608 M 148 4560 L 148 4608 M 348 4568 L 352 4568M 348 4568 L 348 4576 M 352 4568 L 464 4568 M 464 4568 L 468 4568L 468 4576 M 152 4584 L 168 4584 M 168 4584 L 172 4584L 172 4592 M 348 4576 L 348 4624 M 468 4576 L 468 4624 M 172 4592 L 172 4640 M 316 4600 L 320 4600M 316 4600 L 316 4608 M 320 4600 L 336 4600 M 336 4600 M 68 4608 L 68 4616L 72 4616 M 72 4616 L 144 4616 M 144 4616 L 148 4616L 148 4608 M 204 4616 L 208 4616M 204 4616 L 204 4624 M 208 4616 L 288 4616 M 288 4616 L 292 4616L 292 4624 M 316 4608 L 316 4656 M 368 4624 L 376 4608 M 400 4624 L 408 4608 M 204 4624 L 204 4736 M 292 4624 L 292 4736 M 348 4624 L 348 4632L 352 4632 M 352 4632 L 464 4632 M 464 4632 L 468 4632L 468 4624 M 68 4648 L 72 4648M 68 4648 L 68 4656 M 72 4648 L 144 4648 M 144 4648 L 148 4648L 148 4656 M 172 4640 L 172 4648L 176 4648 M 176 4648 L 192 4648 M 192 4648 M 68 4656 L 68 4704 M 148 4656 L 148 4704 M 296 4664 L 312 4664 M 312 4664 L 316 4664L 316 4656 M 152 4680 L 192 4680 M 192 4680 M 232 4680 L 240 4680 M 296 4696 L 312 4696 M 312 4696 L 316 4696L 316 4704 M 68 4704 L 68 4712L 72 4712 M 72 4712 L 144 4712 M 144 4712 L 148 4712L 148 4704 M 172 4712 L 176 4712M 172 4712 L 172 4720 M 176 4712 L 192 4712 M 192 4712 M 316 4704 L 316 4752 M 172 4720 L 172 4768 M 348 4728 L 352 4728M 348 4728 L 348 4736 M 352 4728 L 464 4728 M 464 4728 L 468 4728L 468 4736 M 68 4744 L 72 4744M 68 4744 L 68 4752 M 72 4744 L 144 4744 M 144 4744 L 148 4744L 148 4752 M 204 4736 L 204 4744L 208 4744 M 208 4744 L 288 4744 M 288 4744 L 292 4744L 292 4736 M 348 4736 L 348 4784 M 468 4736 L 468 4784 M 68 4752 L 68 4800 M 148 4752 L 148 4800 M 316 4752 L 316 4760L 320 4760 M 320 4760 L 336 4760 M 336 4760 M 152 4776 L 168 4776 M 168 4776 L 172 4776L 172 4768 M 368 4784 L 376 4768 M 400 4784 L 408 4768 M 348 4784 L 348 4792L 352 4792 M 352 4792 L 464 4792 M 464 4792 L 468 4792L 468 4784 M 68 4800 L 68 4808L 72 4808 M 72 4808 L 144 4808 M 144 4808 L 148 4808L 148 4800" stroke="rgb(0,0,0)" stroke-width="1" fill="transparent" string=""></path><path d="M 80 72 L 84 72" stroke="rgb(0,0,0)" stroke-width="1" fill="none" stroke-dasharray="" marker-end="url(#triangle)"></path><path d="M 232 72 L 228 72" stroke="rgb(0,0,0)" stroke-width="1" fill="none" stroke-dasharray="" marker-end="url(#triangle)"></path><path d="M 116 128 L 116 112" stroke="rgb(0,0,0)" stroke-width="1" fill="none" stroke-dasharray="" marker-end="url(#triangle)"></path><path d="M 196 128 L 196 144" stroke="rgb(0,0,0)" stroke-width="1" fill="none" stroke-dasharray="" marker-end="url(#triangle)"></path><path d="M 48 264 L 64 264" stroke="rgb(0,0,0)" stroke-width="1" fill="none" stroke-dasharray="3 3" marker-end=""></path><path d="M 112 480 L 106 468" stroke="rgb(0,0,0)" stroke-width="1" fill="none" stroke-dasharray="" marker-end="url(#triangle)"></path><path d="M 232 480 L 238 468" stroke="rgb(0,0,0)" stroke-width="1" fill="none" stroke-dasharray="" marker-end="url(#triangle)"></path><path d="M 112 536 L 108 536" stroke="rgb(0,0,0)" stroke-width="1" fill="none" stroke-dasharray="" marker-end="url(#triangle)"></path><path d="M 216 536 L 220 536" stroke="rgb(0,0,0)" stroke-width="1" fill="none" stroke-dasharray="" marker-end="url(#triangle)"></path><path d="M 88 592 L 82 604" stroke="rgb(0,0,0)" stroke-width="1" fill="none" stroke-dasharray="" marker-end="url(#triangle)"></path><path d="M 232 592 L 238 604" stroke="rgb(0,0,0)" stroke-width="1" fill="none" stroke-dasharray="" marker-end="url(#triangle)"></path><path d="M 124 688 L 124 704" stroke="rgb(0,0,0)" stroke-width="1" fill="none" stroke-dasharray="" marker-end="url(#triangle)"></path><path d="M 180 688 L 180 704" stroke="rgb(0,0,0)" stroke-width="1" fill="none" stroke-dasharray="" marker-end="url(#triangle)"></path><path d="M 284 688 L 284 704" stroke="rgb(0,0,0)" stroke-width="1" fill="none" stroke-dasharray="" marker-end="url(#triangle)"></path><path d="M 412 688 L 412 704" stroke="rgb(0,0,0)" stroke-width="1" fill="none" stroke-dasharray="" marker-end="url(#triangle)"></path><path d="M 164 768 L 164 784" stroke="rgb(0,0,0)" stroke-width="1" fill="none" stroke-dasharray="" marker-end="url(#triangle)"></path><path d="M 356 768 L 356 784" stroke="rgb(0,0,0)" stroke-width="1" fill="none" stroke-dasharray="" marker-end="url(#triangle)"></path><path d="M 192 808 L 188 808" stroke="rgb(0,0,0)" stroke-width="1" fill="none" stroke-dasharray="" marker-end="url(#triangle)"></path><path d="M 164 848 L 164 864" stroke="rgb(0,0,0)" stroke-width="1" fill="none" stroke-dasharray="" marker-end="url(#triangle)"></path><path d="M 284 848 L 284 864" stroke="rgb(0,0,0)" stroke-width="1" fill="none" stroke-dasharray="" marker-end="url(#triangle)"></path><path d="M 364 848 L 364 864" stroke="rgb(0,0,0)" stroke-width="1" fill="none" stroke-dasharray="" marker-end="url(#triangle)"></path><path d="M 108 1088 L 108 1104" stroke="rgb(0,0,0)" stroke-width="1" fill="none" stroke-dasharray="" marker-end="url(#triangle)"></path><path d="M 324 1088 L 324 1104" stroke="rgb(0,0,0)" stroke-width="1" fill="none" stroke-dasharray="" marker-end="url(#triangle)"></path><path d="M 540 1088 L 540 1104" stroke="rgb(0,0,0)" stroke-width="1" fill="none" stroke-dasharray="" marker-end="url(#triangle)"></path><path d="M 280 1176 L 284 1176" stroke="rgb(0,0,0)" stroke-width="1" fill="none" stroke-dasharray="" marker-end="url(#triangle)"></path><path d="M 408 1224 L 404 1224" stroke="rgb(0,0,0)" stroke-width="1" fill="none" stroke-dasharray="" marker-end="url(#triangle)"></path><path d="M 344 1304 L 348 1304" stroke="rgb(0,0,0)" stroke-width="1" fill="none" stroke-dasharray="" marker-end="url(#triangle)"></path><path d="M 396 1296 L 396 1312" stroke="rgb(0,0,0)" stroke-width="1" fill="none" stroke-dasharray="3 3" marker-end=""></path><path d="M 404 1296 L 404 1312" stroke="rgb(0,0,0)" stroke-width="1" fill="none" stroke-dasharray="3 3" marker-end=""></path><path d="M 452 1296 L 452 1312" stroke="rgb(0,0,0)" stroke-width="1" fill="none" stroke-dasharray="3 3" marker-end=""></path><path d="M 460 1296 L 460 1312" stroke="rgb(0,0,0)" stroke-width="1" fill="none" stroke-dasharray="3 3" marker-end=""></path><path d="M 344 1336 L 348 1336" stroke="rgb(0,0,0)" stroke-width="1" fill="none" stroke-dasharray="" marker-end="url(#triangle)"></path><path d="M 396 1328 L 396 1344" stroke="rgb(0,0,0)" stroke-width="1" fill="none" stroke-dasharray="3 3" marker-end=""></path><path d="M 404 1328 L 404 1344" stroke="rgb(0,0,0)" stroke-width="1" fill="none" stroke-dasharray="3 3" marker-end=""></path><path d="M 452 1328 L 452 1344" stroke="rgb(0,0,0)" stroke-width="1" fill="none" stroke-dasharray="3 3" marker-end=""></path><path d="M 460 1328 L 460 1344" stroke="rgb(0,0,0)" stroke-width="1" fill="none" stroke-dasharray="3 3" marker-end=""></path><path d="M 416 1368 L 420 1368" stroke="rgb(0,0,0)" stroke-width="1" fill="none" stroke-dasharray="" marker-end="url(#triangle)"></path><path d="M 468 1360 L 468 1376" stroke="rgb(0,0,0)" stroke-width="1" fill="none" stroke-dasharray="3 3" marker-end=""></path><path d="M 476 1360 L 476 1376" stroke="rgb(0,0,0)" stroke-width="1" fill="none" stroke-dasharray="3 3" marker-end=""></path><path d="M 524 1360 L 524 1376" stroke="rgb(0,0,0)" stroke-width="1" fill="none" stroke-dasharray="3 3" marker-end=""></path><path d="M 532 1360 L 532 1376" stroke="rgb(0,0,0)" stroke-width="1" fill="none" stroke-dasharray="3 3" marker-end=""></path><path d="M 124 1376 L 124 1392" stroke="rgb(0,0,0)" stroke-width="1" fill="none" stroke-dasharray="3 3" marker-end=""></path><path d="M 132 1376 L 132 1392" stroke="rgb(0,0,0)" stroke-width="1" fill="none" stroke-dasharray="3 3" marker-end=""></path><path d="M 424 1400 L 428 1400" stroke="rgb(0,0,0)" stroke-width="1" fill="none" stroke-dasharray="" marker-end="url(#triangle)"></path><path d="M 476 1392 L 476 1408" stroke="rgb(0,0,0)" stroke-width="1" fill="none" stroke-dasharray="3 3" marker-end=""></path><path d="M 484 1392 L 484 1408" stroke="rgb(0,0,0)" stroke-width="1" fill="none" stroke-dasharray="3 3" marker-end=""></path><path d="M 532 1392 L 532 1408" stroke="rgb(0,0,0)" stroke-width="1" fill="none" stroke-dasharray="3 3" marker-end=""></path><path d="M 540 1392 L 540 1408" stroke="rgb(0,0,0)" stroke-width="1" fill="none" stroke-dasharray="3 3" marker-end=""></path><path d="M 352 1432 L 356 1432" stroke="rgb(0,0,0)" stroke-width="1" fill="none" stroke-dasharray="" marker-end="url(#triangle)"></path><path d="M 404 1424 L 404 1440" stroke="rgb(0,0,0)" stroke-width="1" fill="none" stroke-dasharray="3 3" marker-end=""></path><path d="M 412 1424 L 412 1440" stroke="rgb(0,0,0)" stroke-width="1" fill="none" stroke-dasharray="3 3" marker-end=""></path><path d="M 460 1424 L 460 1440" stroke="rgb(0,0,0)" stroke-width="1" fill="none" stroke-dasharray="3 3" marker-end=""></path><path d="M 468 1424 L 468 1440" stroke="rgb(0,0,0)" stroke-width="1" fill="none" stroke-dasharray="3 3" marker-end=""></path><path d="M 228 1456 L 228 1472" stroke="rgb(0,0,0)" stroke-width="1" fill="none" stroke-dasharray="3 3" marker-end=""></path><path d="M 236 1456 L 236 1472" stroke="rgb(0,0,0)" stroke-width="1" fill="none" stroke-dasharray="3 3" marker-end=""></path><path d="M 332 1520 L 332 1536" stroke="rgb(0,0,0)" stroke-width="1" fill="none" stroke-dasharray="3 3" marker-end=""></path><path d="M 340 1520 L 340 1536" stroke="rgb(0,0,0)" stroke-width="1" fill="none" stroke-dasharray="3 3" marker-end=""></path><path d="M 44 1552 L 44 1568" stroke="rgb(0,0,0)" stroke-width="1" fill="none" stroke-dasharray="3 3" marker-end=""></path><path d="M 52 1552 L 52 1568" stroke="rgb(0,0,0)" stroke-width="1" fill="none" stroke-dasharray="3 3" marker-end=""></path><path d="M 92 1552 L 92 1568" stroke="rgb(0,0,0)" stroke-width="1" fill="none" stroke-dasharray="3 3" marker-end=""></path><path d="M 100 1552 L 100 1568" stroke="rgb(0,0,0)" stroke-width="1" fill="none" stroke-dasharray="3 3" marker-end=""></path><path d="M 396 1552 L 396 1568" stroke="rgb(0,0,0)" stroke-width="1" fill="none" stroke-dasharray="3 3" marker-end=""></path><path d="M 404 1552 L 404 1568" stroke="rgb(0,0,0)" stroke-width="1" fill="none" stroke-dasharray="3 3" marker-end=""></path><path d="M 460 1552 L 460 1568" stroke="rgb(0,0,0)" stroke-width="1" fill="none" stroke-dasharray="3 3" marker-end=""></path><path d="M 468 1552 L 468 1568" stroke="rgb(0,0,0)" stroke-width="1" fill="none" stroke-dasharray="3 3" marker-end=""></path><path d="M 108 1584 L 108 1600" stroke="rgb(0,0,0)" stroke-width="1" fill="none" stroke-dasharray="3 3" marker-end=""></path><path d="M 116 1584 L 116 1600" stroke="rgb(0,0,0)" stroke-width="1" fill="none" stroke-dasharray="3 3" marker-end=""></path><path d="M 316 1584 L 316 1600" stroke="rgb(0,0,0)" stroke-width="1" fill="none" stroke-dasharray="3 3" marker-end=""></path><path d="M 324 1584 L 324 1600" stroke="rgb(0,0,0)" stroke-width="1" fill="none" stroke-dasharray="3 3" marker-end=""></path><path d="M 348 1584 L 348 1600" stroke="rgb(0,0,0)" stroke-width="1" fill="none" stroke-dasharray="3 3" marker-end=""></path><path d="M 356 1584 L 356 1600" stroke="rgb(0,0,0)" stroke-width="1" fill="none" stroke-dasharray="3 3" marker-end=""></path><path d="M 420 1584 L 420 1600" stroke="rgb(0,0,0)" stroke-width="1" fill="none" stroke-dasharray="3 3" marker-end=""></path><path d="M 428 1584 L 428 1600" stroke="rgb(0,0,0)" stroke-width="1" fill="none" stroke-dasharray="3 3" marker-end=""></path><path d="M 460 1584 L 460 1600" stroke="rgb(0,0,0)" stroke-width="1" fill="none" stroke-dasharray="3 3" marker-end=""></path><path d="M 468 1584 L 468 1600" stroke="rgb(0,0,0)" stroke-width="1" fill="none" stroke-dasharray="3 3" marker-end=""></path><path d="M 492 1584 L 492 1600" stroke="rgb(0,0,0)" stroke-width="1" fill="none" stroke-dasharray="3 3" marker-end=""></path><path d="M 500 1584 L 500 1600" stroke="rgb(0,0,0)" stroke-width="1" fill="none" stroke-dasharray="3 3" marker-end=""></path><path d="M 108 1616 L 108 1632" stroke="rgb(0,0,0)" stroke-width="1" fill="none" stroke-dasharray="3 3" marker-end=""></path><path d="M 116 1616 L 116 1632" stroke="rgb(0,0,0)" stroke-width="1" fill="none" stroke-dasharray="3 3" marker-end=""></path><path d="M 364 1632 L 364 1648" stroke="rgb(0,0,0)" stroke-width="1" fill="none" stroke-dasharray="3 3" marker-end=""></path><path d="M 372 1632 L 372 1648" stroke="rgb(0,0,0)" stroke-width="1" fill="none" stroke-dasharray="3 3" marker-end=""></path><path d="M 92 1648 L 92 1664" stroke="rgb(0,0,0)" stroke-width="1" fill="none" stroke-dasharray="3 3" marker-end=""></path><path d="M 100 1648 L 100 1664" stroke="rgb(0,0,0)" stroke-width="1" fill="none" stroke-dasharray="3 3" marker-end=""></path><path d="M 168 1648 L 162 1660" stroke="rgb(0,0,0)" stroke-width="1" fill="none" stroke-dasharray="" marker-end="url(#triangle)"></path><path d="M 36 1712 L 36 1696" stroke="rgb(0,0,0)" stroke-width="1" fill="none" stroke-dasharray="" marker-end="url(#triangle)"></path><path d="M 272 1784 L 276 1784" stroke="rgb(0,0,0)" stroke-width="1" fill="none" stroke-dasharray="" marker-end="url(#triangle)"></path><path d="M 36 1824 L 36 1888" stroke="rgb(0,0,0)" stroke-width="1" fill="none" stroke-dasharray="3 3" marker-end=""></path><path d="M 40 1896 L 280 1896" stroke="rgb(0,0,0)" stroke-width="1" fill="none" stroke-dasharray="3 3" marker-end=""></path><path d="M 52 1984 L 52 2000" stroke="rgb(0,0,0)" stroke-width="1" fill="none" stroke-dasharray="3 3" marker-end=""></path><path d="M 56 2032 L 50 2020" stroke="rgb(0,0,0)" stroke-width="1" fill="none" stroke-dasharray="" marker-end="url(#triangle)"></path><path d="M 68 2032 L 68 2016" stroke="rgb(0,0,0)" stroke-width="1" fill="none" stroke-dasharray="" marker-end="url(#triangle)"></path><path d="M 80 2032 L 86 2020" stroke="rgb(0,0,0)" stroke-width="1" fill="none" stroke-dasharray="" marker-end="url(#triangle)"></path><path d="M 56 2080 L 50 2092" stroke="rgb(0,0,0)" stroke-width="1" fill="none" stroke-dasharray="" marker-end="url(#triangle)"></path><path d="M 68 2080 L 68 2096" stroke="rgb(0,0,0)" stroke-width="1" fill="none" stroke-dasharray="" marker-end="url(#triangle)"></path><path d="M 80 2080 L 86 2092" stroke="rgb(0,0,0)" stroke-width="1" fill="none" stroke-dasharray="" marker-end="url(#triangle)"></path><path d="M 56 2128 L 50 2116" stroke="rgb(0,0,0)" stroke-width="1" fill="none" stroke-dasharray="" marker-end="url(#triangle)"></path><path d="M 68 2128 L 68 2112" stroke="rgb(0,0,0)" stroke-width="1" fill="none" stroke-dasharray="" marker-end="url(#triangle)"></path><path d="M 80 2128 L 86 2116" stroke="rgb(0,0,0)" stroke-width="1" fill="none" stroke-dasharray="" marker-end="url(#triangle)"></path><path d="M 56 2152 L 52 2152" stroke="rgb(0,0,0)" stroke-width="1" fill="none" stroke-dasharray="" marker-end="url(#triangle)"></path><path d="M 80 2152 L 84 2152" stroke="rgb(0,0,0)" stroke-width="1" fill="none" stroke-dasharray="" marker-end="url(#triangle)"></path><path d="M 56 2176 L 50 2188" stroke="rgb(0,0,0)" stroke-width="1" fill="none" stroke-dasharray="" marker-end="url(#triangle)"></path><path d="M 68 2176 L 68 2192" stroke="rgb(0,0,0)" stroke-width="1" fill="none" stroke-dasharray="" marker-end="url(#triangle)"></path><path d="M 80 2176 L 86 2188" stroke="rgb(0,0,0)" stroke-width="1" fill="none" stroke-dasharray="" marker-end="url(#triangle)"></path><path d="M 336 4600 L 340 4600" stroke="rgb(0,0,0)" stroke-width="1" fill="none" stroke-dasharray="" marker-end="url(#triangle)"></path><path d="M 192 4648 L 196 4648" stroke="rgb(0,0,0)" stroke-width="1" fill="none" stroke-dasharray="" marker-end="url(#triangle)"></path><path d="M 192 4680 L 196 4680" stroke="rgb(0,0,0)" stroke-width="1" fill="none" stroke-dasharray="" marker-end="url(#triangle)"></path><path d="M 192 4712 L 196 4712" stroke="rgb(0,0,0)" stroke-width="1" fill="none" stroke-dasharray="" marker-end="url(#triangle)"></path><path d="M 336 4760 L 340 4760" stroke="rgb(0,0,0)" stroke-width="1" fill="none" stroke-dasharray="" marker-end="url(#triangle)"></path><text x="14" y="76" style="font-size:14px;font-family:monospace">Foo</text><text x="102" y="76" style="font-size:14px;font-family:monospace">Bar</text><text x="182" y="76" style="font-size:14px;font-family:monospace">Baz</text><text x="262" y="76" style="font-size:14px;font-family:monospace">Moo</text><text x="14" y="172" style="font-size:14px;font-family:monospace">Hello</text><text x="62" y="172" style="font-size:14px;font-family:monospace">here</text><text x="102" y="172" style="font-size:14px;font-family:monospace">and</text><text x="134" y="172" style="font-size:14px;font-family:monospace">there</text><text x="182" y="172" style="font-size:14px;font-family:monospace">and</text><text x="214" y="172" style="font-size:14px;font-family:monospace">everywhere</text><text x="30" y="268" style="font-size:14px;font-family:monospace">a</text><text x="70" y="268" style="font-size:14px;font-family:monospace">b</text><text x="222" y="284" style="font-size:14px;font-family:monospace">process</text><text x="38" y="300" style="font-size:14px;font-family:monospace">string</text><text x="102" y="300" style="font-size:14px;font-family:monospace">ne</text><text x="358" y="300" style="font-size:14px;font-family:monospace">process</text><text x="62" y="412" style="font-size:14px;font-family:monospace">another</text><text x="126" y="412" style="font-size:14px;font-family:monospace">process</text><text x="14" y="476" style="font-size:14px;font-family:monospace">User</text><text x="54" y="476" style="font-size:14px;font-family:monospace">code</text><text x="246" y="476" style="font-size:14px;font-family:monospace">OS</text><text x="270" y="476" style="font-size:14px;font-family:monospace">code</text><text x="14" y="540" style="font-size:14px;font-family:monospace">User</text><text x="54" y="540" style="font-size:14px;font-family:monospace">code</text><text x="142" y="540" style="font-size:14px;font-family:monospace">Mode</text><text x="230" y="540" style="font-size:14px;font-family:monospace">OS</text><text x="254" y="540" style="font-size:14px;font-family:monospace">code</text><text x="54" y="620" style="font-size:14px;font-family:monospace">User</text><text x="94" y="620" style="font-size:14px;font-family:monospace">code</text><text x="222" y="620" style="font-size:14px;font-family:monospace">OS</text><text x="246" y="620" style="font-size:14px;font-family:monospace">code</text><text x="30" y="668" style="font-size:14px;font-family:monospace">OS</text><text x="54" y="668" style="font-size:14px;font-family:monospace">API</text><text x="118" y="732" style="font-size:14px;font-family:monospace">Filesystem</text><text x="254" y="732" style="font-size:14px;font-family:monospace">Scheduler</text><text x="390" y="732" style="font-size:14px;font-family:monospace">MMU</text><text x="150" y="812" style="font-size:14px;font-family:monospace">IO</text><text x="334" y="812" style="font-size:14px;font-family:monospace">Network</text><text x="254" y="892" style="font-size:14px;font-family:monospace">HAL</text><text x="86" y="988" style="font-size:14px;font-family:monospace">device</text><text x="86" y="1004" style="font-size:14px;font-family:monospace">loads</text><text x="30" y="1020" style="font-size:14px;font-family:monospace">ooo</text><text x="30" y="1036" style="font-size:14px;font-family:monospace">ooo</text><text x="30" y="1052" style="font-size:14px;font-family:monospace">ooo</text><text x="38" y="1132" style="font-size:14px;font-family:monospace">Loadable</text><text x="110" y="1132" style="font-size:14px;font-family:monospace">module</text><text x="166" y="1132" style="font-size:14px;font-family:monospace">C</text><text x="254" y="1132" style="font-size:14px;font-family:monospace">Loadable</text><text x="326" y="1132" style="font-size:14px;font-family:monospace">module</text><text x="382" y="1132" style="font-size:14px;font-family:monospace">A</text><text x="470" y="1132" style="font-size:14px;font-family:monospace">Loadable</text><text x="542" y="1132" style="font-size:14px;font-family:monospace">module</text><text x="598" y="1132" style="font-size:14px;font-family:monospace">B</text><text x="494" y="1148" style="font-size:14px;font-family:monospace">instrumented</text><text x="302" y="1180" style="font-size:14px;font-family:monospace">A</text><text x="318" y="1180" style="font-size:14px;font-family:monospace">o</text><text x="134" y="1196" style="font-size:14px;font-family:monospace">calls</text><text x="254" y="1228" style="font-size:14px;font-family:monospace">A</text><text x="270" y="1228" style="font-size:14px;font-family:monospace">instrumented</text><text x="374" y="1228" style="font-size:14px;font-family:monospace">o</text><text x="470" y="1244" style="font-size:14px;font-family:monospace">calls</text><text x="358" y="1308" style="font-size:14px;font-family:monospace">Base</text><text x="406" y="1308" style="font-size:14px;font-family:monospace">Class</text><text x="462" y="1308" style="font-size:14px;font-family:monospace">Derived</text><text x="526" y="1308" style="font-size:14px;font-family:monospace">A</text><text x="358" y="1340" style="font-size:14px;font-family:monospace">Base</text><text x="406" y="1340" style="font-size:14px;font-family:monospace">Class</text><text x="462" y="1340" style="font-size:14px;font-family:monospace">Derived</text><text x="526" y="1340" style="font-size:14px;font-family:monospace">B</text><text x="46" y="1356" style="font-size:14px;font-family:monospace">Something</text><text x="430" y="1372" style="font-size:14px;font-family:monospace">Base</text><text x="478" y="1372" style="font-size:14px;font-family:monospace">Class</text><text x="534" y="1372" style="font-size:14px;font-family:monospace">Derived</text><text x="46" y="1388" style="font-size:14px;font-family:monospace">Something</text><text x="134" y="1388" style="font-size:14px;font-family:monospace">else</text><text x="438" y="1404" style="font-size:14px;font-family:monospace">Base</text><text x="486" y="1404" style="font-size:14px;font-family:monospace">Class</text><text x="542" y="1404" style="font-size:14px;font-family:monospace">Derived</text><text x="366" y="1436" style="font-size:14px;font-family:monospace">Base</text><text x="414" y="1436" style="font-size:14px;font-family:monospace">Class</text><text x="470" y="1436" style="font-size:14px;font-family:monospace">Derived</text><text x="534" y="1436" style="font-size:14px;font-family:monospace">C</text><text x="190" y="1468" style="font-size:14px;font-family:monospace">Base</text><text x="238" y="1468" style="font-size:14px;font-family:monospace">Class</text><text x="302" y="1532" style="font-size:14px;font-family:monospace">The</text><text x="342" y="1532" style="font-size:14px;font-family:monospace">Latest</text><text x="6" y="1564" style="font-size:14px;font-family:monospace">With</text><text x="54" y="1564" style="font-size:14px;font-family:monospace">Some</text><text x="102" y="1564" style="font-size:14px;font-family:monospace">fantasy</text><text x="366" y="1564" style="font-size:14px;font-family:monospace">The</text><text x="406" y="1564" style="font-size:14px;font-family:monospace">Latest</text><text x="470" y="1564" style="font-size:14px;font-family:monospace">Greatest</text><text x="70" y="1596" style="font-size:14px;font-family:monospace">More</text><text x="118" y="1596" style="font-size:14px;font-family:monospace">Stuff</text><text x="302" y="1596" style="font-size:14px;font-family:monospace">I</text><text x="326" y="1596" style="font-size:14px;font-family:monospace">Am</text><text x="358" y="1596" style="font-size:14px;font-family:monospace">Running</text><text x="430" y="1596" style="font-size:14px;font-family:monospace">Out</text><text x="470" y="1596" style="font-size:14px;font-family:monospace">Of</text><text x="502" y="1596" style="font-size:14px;font-family:monospace">Ideas</text><text x="70" y="1628" style="font-size:14px;font-family:monospace">More</text><text x="118" y="1628" style="font-size:14px;font-family:monospace">Stuff</text><text x="326" y="1644" style="font-size:14px;font-family:monospace">Last</text><text x="374" y="1644" style="font-size:14px;font-family:monospace">One</text><text x="54" y="1660" style="font-size:14px;font-family:monospace">More</text><text x="102" y="1660" style="font-size:14px;font-family:monospace">Stuff</text><text x="14" y="1692" style="font-size:14px;font-family:monospace">Safety</text><text x="230" y="1724" style="font-size:14px;font-family:monospace">Rust</text><text x="134" y="1740" style="font-size:14px;font-family:monospace">Java</text><text x="54" y="1756" style="font-size:14px;font-family:monospace">Python</text><text x="238" y="1772" style="font-size:14px;font-family:monospace">C</text><text x="286" y="1788" style="font-size:14px;font-family:monospace">Control</text><text x="14" y="1996" style="font-size:14px;font-family:monospace">TODO</text><text x="94" y="4588" style="font-size:14px;font-family:monospace">NFS</text><text x="374" y="4604" style="font-size:14px;font-family:monospace">CacheFS</text><text x="374" y="4620" style="font-size:14px;font-family:monospace">dev</text><text x="406" y="4620" style="font-size:14px;font-family:monospace">hda5</text><text x="94" y="4684" style="font-size:14px;font-family:monospace">AFS</text><text x="214" y="4684" style="font-size:14px;font-family:monospace">FS</text><text x="238" y="4684" style="font-size:14px;font-family:monospace">Cache</text><text x="366" y="4764" style="font-size:14px;font-family:monospace">CacheFiles</text><text x="86" y="4780" style="font-size:14px;font-family:monospace">ISOFS</text><text x="374" y="4780" style="font-size:14px;font-family:monospace">var</text><text x="406" y="4780" style="font-size:14px;font-family:monospace">cache</text></svg>
