<svg xmlns='http://www.w3.org/2000/svg' height="1632" width="624"><defs><marker id="triangle" viewBox="0 0 14 14" refX="0" refY="5" markerUnits="strokeWidth" markerWidth="10" markerHeight="10" orient="auto"><path d="M 0 0 L 10 5 L 0 10 z"></path></marker></defs><path d="M 4 24 L 8 24M 4 24 L 4 32 M 8 24 L 56 24 M 56 24 L 60 24L 60 32 M 92 24 L 96 24M 92 24 L 92 32 M 96 24 L 136 24 M 136 24 L 140 24L 140 32 M 172 24 L 176 24M 172 24 L 172 32 M 176 24 L 216 24 M 216 24 L 220 24L 220 32 M 252 24 L 256 24M 252 24 L 252 32 M 256 24 L 296 24 M 296 24 L 300 24L 300 32 M 4 32 L 4 80 M 60 32 L 60 48 M 92 32 L 92 80 M 140 32 L 140 48 M 172 32 L 172 48 M 220 32 L 220 80 M 252 32 L 252 48 M 300 32 L 300 80 M 60 48 L 60 64M 60 56 L 64 56 M 64 56 L 80 56 M 80 56 M 140 48 L 140 64M 140 56 L 144 56 M 144 56 L 168 56 M 172 48 L 172 64M 168 56 L 172 56 M 232 56 M 232 56 L 248 56 M 252 48 L 252 64M 248 56 L 252 56 M 60 64 L 60 80 M 140 64 L 140 80 M 172 64 L 172 80 M 252 64 L 252 80 M 4 80 L 4 88L 8 88 M 8 88 L 56 88 M 56 88 L 60 88L 60 80 M 92 80 L 92 88L 96 88 M 96 88 L 136 88 M 136 88 L 140 88L 140 80 M 172 80 L 172 88L 176 88 M 176 88 L 192 88 M 192 88 L 200 88M 196 88 L 196 96 M 200 88 L 216 88 M 216 88 L 220 88L 220 80 M 252 80 L 252 88L 256 88 M 256 88 L 296 88 M 296 88 L 300 88L 300 80 M 116 112 M 196 96 L 196 112 M 116 112 L 116 128 M 196 112 M 8 136 A 4 4 0 0 0 4 140L 4 144 M 8 136 L 112 136 M 116 128 L 116 136M 112 136 L 120 136 M 120 136 L 304 136 M 308 140 A 4 4 0 0 0 304 136M 308 140 L 308 144 M 4 144 L 4 160 M 308 144 L 308 160 M 4 164 A 4 4 0 0 0 8 168M 4 160 L 4 164 M 8 168 L 304 168 M 304 168 A 4 4 0 0 0 308 164M 308 160 L 308 164 M 192 192 L 288 192 M 32 200 A 8 8 0 0 0 26 204M 24 208 L 26 204 M 32 200 L 144 200 M 150 204 A 8 8 0 0 0 144 200M 152 208 L 150 204 M 192 192 L 208 224 M 288 192 L 304 224 M 16 224 L 24 208 M 48 216 M 152 208 L 160 224 M 344 224 L 424 224 M 16 224 A 16 16 0 0 0 16 240 M 160 240 A 16 16 0 0 0 160 224 M 208 240 A 16 16 0 0 0 208 224 M 304 240 A 16 16 0 0 0 304 224 M 344 224 L 352 240 M 424 224 L 432 240 M 16 240 L 24 256 M 152 256 L 160 240 M 26 260 A 8 8 0 0 0 32 264M 24 256 L 26 260 M 32 264 L 144 264 M 144 264 A 8 8 0 0 0 150 260L 152 256 M 192 272 L 208 240 M 208 272 L 192 272 M 208 272 L 288 272 M 288 272 L 304 240 M 336 272 L 352 240 M 352 272 L 336 272 M 352 272 L 416 272 M 416 272 L 432 240 M 32 304 L 176 304 M 32 304 L 48 336 M 176 304 L 192 336 M 48 336 L 50 340M 50 348 A 8 8 0 0 0 50 340M 48 352 L 50 348 M 192 336 L 194 340M 194 348 A 8 8 0 0 0 194 340M 192 352 L 194 348 M 32 384 L 48 352 M 48 384 L 32 384 M 48 384 L 176 384 M 176 384 L 192 352 M 112 416 M 232 416 M 112 416 L 136 464 M 224 432 L 232 416 M 200 440 A 8 8 0 0 0 194 444M 192 448 L 194 444 M 200 440 L 216 440 M 216 440 A 8 8 0 0 0 222 436L 224 432 M 184 464 L 192 448 M 112 472 M 112 472 L 136 472 M 184 472 L 216 472 M 216 472 M 128 496 L 136 480 M 184 480 L 200 512 M 104 504 A 8 8 0 0 0 98 508M 96 512 L 98 508 M 104 504 L 120 504 M 120 504 A 8 8 0 0 0 126 500L 128 496 M 200 512 L 224 512 M 88 528 L 96 512 M 224 512 L 232 528 M 88 528 M 232 528 M 112 584 L 136 584 M 168 584 L 192 584 M 216 584 L 240 584 M 272 584 L 296 584 M 344 584 L 368 584 M 400 584 L 424 584 M 112 600 L 136 600 M 168 600 L 192 600 M 216 600 L 240 600 M 272 600 L 296 600 M 344 600 L 368 600 M 400 600 L 424 600 M 124 608 L 124 624 M 180 608 L 180 624 M 228 608 L 228 736 M 284 608 L 284 624 M 356 608 L 356 704 M 412 608 L 412 624 M 124 624 M 180 624 M 284 624 M 412 624 M 112 648 A 4 4 0 0 0 108 652L 108 656 M 112 648 L 208 648 M 212 652 A 4 4 0 0 0 208 648M 212 652 L 212 656 M 248 648 A 4 4 0 0 0 244 652L 244 656 M 248 648 L 336 648 M 340 652 A 4 4 0 0 0 336 648M 340 652 L 340 656 M 384 648 A 4 4 0 0 0 380 652L 380 656 M 384 648 L 424 648 M 428 652 A 4 4 0 0 0 424 648M 428 652 L 428 656 M 108 656 L 108 672 M 212 656 L 212 672 M 244 656 L 244 672 M 340 656 L 340 672 M 380 656 L 380 672 M 428 656 L 428 672 M 108 676 A 4 4 0 0 0 112 680M 108 672 L 108 676 M 112 680 L 208 680 M 208 680 A 4 4 0 0 0 212 676M 212 672 L 212 676 M 244 676 A 4 4 0 0 0 248 680M 244 672 L 244 676 M 248 680 L 336 680 M 336 680 A 4 4 0 0 0 340 676M 340 672 L 340 676 M 380 676 A 4 4 0 0 0 384 680M 380 672 L 380 676 M 384 680 L 424 680 M 424 680 A 4 4 0 0 0 428 676M 428 672 L 428 676 M 164 688 L 164 704 M 284 688 L 284 784 M 164 704 M 356 704 M 144 728 A 4 4 0 0 0 140 732L 140 736 M 144 728 L 176 728 M 180 732 A 4 4 0 0 0 176 728M 180 732 L 180 736 M 328 728 A 4 4 0 0 0 324 732L 324 736 M 328 728 L 400 728 M 404 732 A 4 4 0 0 0 400 728M 404 732 L 404 736 M 140 736 L 140 752 M 180 736 L 180 752 M 192 744 M 192 744 L 224 744 M 224 744 A 4 4 0 0 0 228 740M 228 736 L 228 740 M 324 736 L 324 752 M 404 736 L 404 752 M 140 756 A 4 4 0 0 0 144 760M 140 752 L 140 756 M 144 760 L 176 760 M 176 760 A 4 4 0 0 0 180 756M 180 752 L 180 756 M 324 756 A 4 4 0 0 0 328 760M 324 752 L 324 756 M 328 760 L 400 760 M 400 760 A 4 4 0 0 0 404 756M 404 752 L 404 756 M 164 768 L 164 784 M 364 768 L 364 784 M 164 784 M 284 784 M 364 784 M 112 808 A 4 4 0 0 0 108 812L 108 816 M 112 808 L 424 808 M 428 812 A 4 4 0 0 0 424 808M 428 812 L 428 816 M 108 816 L 108 832 M 428 816 L 428 832 M 108 836 A 4 4 0 0 0 112 840M 108 832 L 108 836 M 112 840 L 424 840 M 424 840 A 4 4 0 0 0 428 836M 428 832 L 428 836 M 32 896 L 20 896 M 32 896 L 56 896 M 20 896 L 20 992 M 40 912 L 28 912 M 40 912 L 60 912 M 68 896 L 68 992 M 28 912 L 28 944 M 60 912 L 60 944 M 40 944 L 28 944 M 40 944 L 60 944 M 72 952 L 536 952 M 540 956 A 4 4 0 0 0 536 952M 540 956 L 540 960 M 108 960 L 108 1024 M 324 960 L 324 1024 M 540 960 L 540 1024 M 20 992 L 20 1004A 4 4 0 0 0 24 1008 M 24 1008 L 64 1008 M 64 1008 A 4 4 0 0 0 68 1004L 68 992 M 108 1024 M 324 1024 M 540 1024 M 32 1048 A 4 4 0 0 0 28 1052L 28 1056 M 32 1048 L 184 1048 M 188 1052 A 4 4 0 0 0 184 1048M 188 1052 L 188 1056 M 216 1048 A 4 4 0 0 0 212 1052L 212 1056 M 216 1048 L 432 1048 M 436 1052 A 4 4 0 0 0 432 1048M 436 1052 L 436 1056 M 464 1048 A 4 4 0 0 0 460 1052L 460 1056 M 464 1048 L 616 1048 M 620 1052 A 4 4 0 0 0 616 1048M 620 1052 L 620 1056 M 28 1056 L 28 1072 M 188 1056 L 188 1072 M 212 1056 L 212 1104 M 436 1056 L 436 1152 M 460 1056 L 460 1088 M 620 1056 L 620 1088 M 28 1076 A 4 4 0 0 0 32 1080M 28 1072 L 28 1076 M 32 1080 L 184 1080 M 184 1080 A 4 4 0 0 0 188 1076M 188 1072 L 188 1076 M 216 1080 L 432 1080 M 108 1088 L 108 1104 M 296 1096 A 4 4 0 0 0 292 1100L 292 1104 M 296 1096 L 336 1096 M 340 1100 A 4 4 0 0 0 336 1096M 340 1100 L 340 1104 M 460 1092 A 4 4 0 0 0 464 1096M 460 1088 L 460 1092 M 464 1096 L 616 1096 M 616 1096 A 4 4 0 0 0 620 1092M 620 1088 L 620 1092 M 108 1108 A 4 4 0 0 0 112 1112M 108 1104 L 108 1108 M 112 1112 L 208 1112 M 208 1112 L 216 1112M 212 1104 L 212 1120 M 216 1112 L 280 1112 M 280 1112 M 292 1104 L 292 1120 M 340 1104 L 340 1120 M 548 1104 L 548 1152 M 212 1120 L 212 1184 M 292 1124 A 4 4 0 0 0 296 1128M 292 1120 L 292 1124 M 296 1128 L 336 1128 M 336 1128 A 4 4 0 0 0 340 1124M 340 1120 L 340 1124 M 256 1144 A 8 8 0 0 0 250 1148M 248 1152 L 250 1148 M 256 1144 L 400 1144 M 402 1148 A 4 4 0 0 0 400 1144M 400 1152 L 402 1148 M 240 1168 L 248 1152 M 392 1168 L 400 1152 M 408 1160 M 408 1160 L 432 1160 M 432 1160 L 440 1160M 436 1152 L 436 1168 M 440 1160 L 544 1160 M 544 1160 A 4 4 0 0 0 548 1156M 548 1152 L 548 1156 M 238 1172 A 4 4 0 0 0 240 1176M 238 1172 L 240 1168 M 240 1176 L 384 1176 M 384 1176 A 8 8 0 0 0 390 1172L 392 1168 M 436 1168 L 436 1184 M 212 1188 A 4 4 0 0 0 216 1192M 212 1184 L 212 1188 M 216 1192 L 432 1192 M 432 1192 A 4 4 0 0 0 436 1188M 436 1184 L 436 1188 M 328 1240 A 8 8 0 0 0 322 1244M 320 1248 L 322 1244 M 328 1240 L 344 1240 M 344 1240 M 396 1232 M 404 1232 M 452 1232 M 460 1232 M 520 1248 L 528 1248 M 312 1264 L 320 1248 M 304 1280 L 312 1264M 312 1272 A 8 8 0 0 0 306 1276 M 312 1272 L 344 1272 M 344 1272 M 396 1264 M 404 1264 M 452 1264 M 460 1264 M 520 1280 L 528 1280 M 128 1288 L 184 1288 M 190 1292 A 8 8 0 0 0 184 1288M 192 1296 L 190 1292 M 376 1280 L 384 1296 M 192 1296 L 240 1392 M 384 1296 L 392 1312M 392 1304 L 390 1304M 386 1300 A 8 8 0 0 0 390 1304 M 392 1304 L 416 1304 M 416 1304 M 468 1296 M 476 1296 M 524 1296 M 532 1296 M 124 1312 M 132 1312 M 392 1312 L 400 1328 M 96 1328 L 128 1392 M 402 1332 A 8 8 0 0 0 408 1336M 400 1328 L 402 1332 M 408 1336 L 424 1336 M 424 1336 M 476 1328 M 484 1328 M 532 1328 M 540 1328 M 264 1360 L 304 1280 M 256 1376 L 264 1360M 264 1368 A 8 8 0 0 0 258 1372 M 264 1368 L 352 1368 M 352 1368 M 404 1360 M 412 1360 M 460 1360 M 468 1360 M 528 1376 L 536 1376 M 248 1392 L 256 1376 M 130 1396 A 8 8 0 0 0 136 1400M 128 1392 L 130 1396 M 136 1400 L 184 1400 M 228 1392 M 236 1392 M 184 1424 L 192 1408 M 208 1408 L 288 1568 M 224 1408 L 280 1520 M 240 1408 L 264 1456 M 184 1424 L 182 1428A 16 16 0 0 0 180 1436M 180 1440 L 180 1436 M 180 1440 L 180 1456 M 180 1456 L 180 1472M 176 1472 L 178 1468A 16 16 0 0 0 180 1460 M 266 1460 A 8 8 0 0 0 272 1464M 264 1456 L 266 1460 M 272 1464 L 296 1464 M 332 1456 M 340 1456 M 168 1488 L 176 1472 M 180 1472 L 180 1488 M 312 1472 L 320 1488 M 44 1488 M 52 1488 M 92 1488 M 100 1488 M 180 1488 L 180 1504M 176 1504 L 178 1500A 16 16 0 0 0 180 1492 M 322 1492 A 8 8 0 0 0 328 1496M 320 1488 L 322 1492 M 328 1496 L 360 1496 M 396 1488 M 404 1488 M 460 1488 M 468 1488 M 168 1520 L 176 1504 M 180 1504 L 180 1520 M 108 1520 M 116 1520 M 180 1520 L 180 1536M 176 1536 L 178 1532A 16 16 0 0 0 180 1524 M 282 1524 A 8 8 0 0 0 288 1528M 280 1520 L 282 1524 M 288 1528 L 296 1528 M 316 1520 M 324 1520 M 348 1520 M 356 1520 M 420 1520 M 428 1520 M 460 1520 M 468 1520 M 492 1520 M 500 1520 M 168 1552 L 176 1536 M 180 1536 L 180 1552 M 108 1552 M 116 1552 M 176 1568 L 178 1564A 16 16 0 0 0 180 1556M 180 1552 L 180 1556 M 168 1584 L 176 1568 M 290 1572 A 8 8 0 0 0 296 1576M 288 1568 L 290 1572 M 296 1576 L 320 1576 M 364 1568 M 372 1568 M 92 1584 M 100 1584 M 168 1584" stroke="rgb(0,0,0)" stroke-width="1" fill="transparent" string=""></path><path d="M 80 56 L 84 56" stroke="rgb(0,0,0)" stroke-width="1" fill="transparent" stroke-dasharray="" marker-end="url(#triangle)"></path><path d="M 232 56 L 228 56" stroke="rgb(0,0,0)" stroke-width="1" fill="transparent" stroke-dasharray="" marker-end="url(#triangle)"></path><path d="M 116 112 L 116 96" stroke="rgb(0,0,0)" stroke-width="1" fill="transparent" stroke-dasharray="" marker-end="url(#triangle)"></path><path d="M 196 112 L 196 128" stroke="rgb(0,0,0)" stroke-width="1" fill="transparent" stroke-dasharray="" marker-end="url(#triangle)"></path><path d="M 48 216 L 64 216" stroke="rgb(0,0,0)" stroke-width="1" fill="transparent" stroke-dasharray="3 3" marker-end=""></path><path d="M 112 416 L 106 404" stroke="rgb(0,0,0)" stroke-width="1" fill="transparent" stroke-dasharray="" marker-end="url(#triangle)"></path><path d="M 232 416 L 238 404" stroke="rgb(0,0,0)" stroke-width="1" fill="transparent" stroke-dasharray="" marker-end="url(#triangle)"></path><path d="M 112 472 L 108 472" stroke="rgb(0,0,0)" stroke-width="1" fill="transparent" stroke-dasharray="" marker-end="url(#triangle)"></path><path d="M 216 472 L 220 472" stroke="rgb(0,0,0)" stroke-width="1" fill="transparent" stroke-dasharray="" marker-end="url(#triangle)"></path><path d="M 88 528 L 82 540" stroke="rgb(0,0,0)" stroke-width="1" fill="transparent" stroke-dasharray="" marker-end="url(#triangle)"></path><path d="M 232 528 L 238 540" stroke="rgb(0,0,0)" stroke-width="1" fill="transparent" stroke-dasharray="" marker-end="url(#triangle)"></path><path d="M 124 624 L 124 640" stroke="rgb(0,0,0)" stroke-width="1" fill="transparent" stroke-dasharray="" marker-end="url(#triangle)"></path><path d="M 180 624 L 180 640" stroke="rgb(0,0,0)" stroke-width="1" fill="transparent" stroke-dasharray="" marker-end="url(#triangle)"></path><path d="M 284 624 L 284 640" stroke="rgb(0,0,0)" stroke-width="1" fill="transparent" stroke-dasharray="" marker-end="url(#triangle)"></path><path d="M 412 624 L 412 640" stroke="rgb(0,0,0)" stroke-width="1" fill="transparent" stroke-dasharray="" marker-end="url(#triangle)"></path><path d="M 164 704 L 164 720" stroke="rgb(0,0,0)" stroke-width="1" fill="transparent" stroke-dasharray="" marker-end="url(#triangle)"></path><path d="M 356 704 L 356 720" stroke="rgb(0,0,0)" stroke-width="1" fill="transparent" stroke-dasharray="" marker-end="url(#triangle)"></path><path d="M 192 744 L 188 744" stroke="rgb(0,0,0)" stroke-width="1" fill="transparent" stroke-dasharray="" marker-end="url(#triangle)"></path><path d="M 164 784 L 164 800" stroke="rgb(0,0,0)" stroke-width="1" fill="transparent" stroke-dasharray="" marker-end="url(#triangle)"></path><path d="M 284 784 L 284 800" stroke="rgb(0,0,0)" stroke-width="1" fill="transparent" stroke-dasharray="" marker-end="url(#triangle)"></path><path d="M 364 784 L 364 800" stroke="rgb(0,0,0)" stroke-width="1" fill="transparent" stroke-dasharray="" marker-end="url(#triangle)"></path><path d="M 108 1024 L 108 1040" stroke="rgb(0,0,0)" stroke-width="1" fill="transparent" stroke-dasharray="" marker-end="url(#triangle)"></path><path d="M 324 1024 L 324 1040" stroke="rgb(0,0,0)" stroke-width="1" fill="transparent" stroke-dasharray="" marker-end="url(#triangle)"></path><path d="M 540 1024 L 540 1040" stroke="rgb(0,0,0)" stroke-width="1" fill="transparent" stroke-dasharray="" marker-end="url(#triangle)"></path><path d="M 280 1112 L 284 1112" stroke="rgb(0,0,0)" stroke-width="1" fill="transparent" stroke-dasharray="" marker-end="url(#triangle)"></path><path d="M 408 1160 L 404 1160" stroke="rgb(0,0,0)" stroke-width="1" fill="transparent" stroke-dasharray="" marker-end="url(#triangle)"></path><path d="M 344 1240 L 348 1240" stroke="rgb(0,0,0)" stroke-width="1" fill="transparent" stroke-dasharray="" marker-end="url(#triangle)"></path><path d="M 396 1232 L 396 1248" stroke="rgb(0,0,0)" stroke-width="1" fill="transparent" stroke-dasharray="3 3" marker-end=""></path><path d="M 404 1232 L 404 1248" stroke="rgb(0,0,0)" stroke-width="1" fill="transparent" stroke-dasharray="3 3" marker-end=""></path><path d="M 452 1232 L 452 1248" stroke="rgb(0,0,0)" stroke-width="1" fill="transparent" stroke-dasharray="3 3" marker-end=""></path><path d="M 460 1232 L 460 1248" stroke="rgb(0,0,0)" stroke-width="1" fill="transparent" stroke-dasharray="3 3" marker-end=""></path><path d="M 344 1272 L 348 1272" stroke="rgb(0,0,0)" stroke-width="1" fill="transparent" stroke-dasharray="" marker-end="url(#triangle)"></path><path d="M 396 1264 L 396 1280" stroke="rgb(0,0,0)" stroke-width="1" fill="transparent" stroke-dasharray="3 3" marker-end=""></path><path d="M 404 1264 L 404 1280" stroke="rgb(0,0,0)" stroke-width="1" fill="transparent" stroke-dasharray="3 3" marker-end=""></path><path d="M 452 1264 L 452 1280" stroke="rgb(0,0,0)" stroke-width="1" fill="transparent" stroke-dasharray="3 3" marker-end=""></path><path d="M 460 1264 L 460 1280" stroke="rgb(0,0,0)" stroke-width="1" fill="transparent" stroke-dasharray="3 3" marker-end=""></path><path d="M 416 1304 L 420 1304" stroke="rgb(0,0,0)" stroke-width="1" fill="transparent" stroke-dasharray="" marker-end="url(#triangle)"></path><path d="M 468 1296 L 468 1312" stroke="rgb(0,0,0)" stroke-width="1" fill="transparent" stroke-dasharray="3 3" marker-end=""></path><path d="M 476 1296 L 476 1312" stroke="rgb(0,0,0)" stroke-width="1" fill="transparent" stroke-dasharray="3 3" marker-end=""></path><path d="M 524 1296 L 524 1312" stroke="rgb(0,0,0)" stroke-width="1" fill="transparent" stroke-dasharray="3 3" marker-end=""></path><path d="M 532 1296 L 532 1312" stroke="rgb(0,0,0)" stroke-width="1" fill="transparent" stroke-dasharray="3 3" marker-end=""></path><path d="M 124 1312 L 124 1328" stroke="rgb(0,0,0)" stroke-width="1" fill="transparent" stroke-dasharray="3 3" marker-end=""></path><path d="M 132 1312 L 132 1328" stroke="rgb(0,0,0)" stroke-width="1" fill="transparent" stroke-dasharray="3 3" marker-end=""></path><path d="M 424 1336 L 428 1336" stroke="rgb(0,0,0)" stroke-width="1" fill="transparent" stroke-dasharray="" marker-end="url(#triangle)"></path><path d="M 476 1328 L 476 1344" stroke="rgb(0,0,0)" stroke-width="1" fill="transparent" stroke-dasharray="3 3" marker-end=""></path><path d="M 484 1328 L 484 1344" stroke="rgb(0,0,0)" stroke-width="1" fill="transparent" stroke-dasharray="3 3" marker-end=""></path><path d="M 532 1328 L 532 1344" stroke="rgb(0,0,0)" stroke-width="1" fill="transparent" stroke-dasharray="3 3" marker-end=""></path><path d="M 540 1328 L 540 1344" stroke="rgb(0,0,0)" stroke-width="1" fill="transparent" stroke-dasharray="3 3" marker-end=""></path><path d="M 352 1368 L 356 1368" stroke="rgb(0,0,0)" stroke-width="1" fill="transparent" stroke-dasharray="" marker-end="url(#triangle)"></path><path d="M 404 1360 L 404 1376" stroke="rgb(0,0,0)" stroke-width="1" fill="transparent" stroke-dasharray="3 3" marker-end=""></path><path d="M 412 1360 L 412 1376" stroke="rgb(0,0,0)" stroke-width="1" fill="transparent" stroke-dasharray="3 3" marker-end=""></path><path d="M 460 1360 L 460 1376" stroke="rgb(0,0,0)" stroke-width="1" fill="transparent" stroke-dasharray="3 3" marker-end=""></path><path d="M 468 1360 L 468 1376" stroke="rgb(0,0,0)" stroke-width="1" fill="transparent" stroke-dasharray="3 3" marker-end=""></path><path d="M 228 1392 L 228 1408" stroke="rgb(0,0,0)" stroke-width="1" fill="transparent" stroke-dasharray="3 3" marker-end=""></path><path d="M 236 1392 L 236 1408" stroke="rgb(0,0,0)" stroke-width="1" fill="transparent" stroke-dasharray="3 3" marker-end=""></path><path d="M 332 1456 L 332 1472" stroke="rgb(0,0,0)" stroke-width="1" fill="transparent" stroke-dasharray="3 3" marker-end=""></path><path d="M 340 1456 L 340 1472" stroke="rgb(0,0,0)" stroke-width="1" fill="transparent" stroke-dasharray="3 3" marker-end=""></path><path d="M 44 1488 L 44 1504" stroke="rgb(0,0,0)" stroke-width="1" fill="transparent" stroke-dasharray="3 3" marker-end=""></path><path d="M 52 1488 L 52 1504" stroke="rgb(0,0,0)" stroke-width="1" fill="transparent" stroke-dasharray="3 3" marker-end=""></path><path d="M 92 1488 L 92 1504" stroke="rgb(0,0,0)" stroke-width="1" fill="transparent" stroke-dasharray="3 3" marker-end=""></path><path d="M 100 1488 L 100 1504" stroke="rgb(0,0,0)" stroke-width="1" fill="transparent" stroke-dasharray="3 3" marker-end=""></path><path d="M 396 1488 L 396 1504" stroke="rgb(0,0,0)" stroke-width="1" fill="transparent" stroke-dasharray="3 3" marker-end=""></path><path d="M 404 1488 L 404 1504" stroke="rgb(0,0,0)" stroke-width="1" fill="transparent" stroke-dasharray="3 3" marker-end=""></path><path d="M 460 1488 L 460 1504" stroke="rgb(0,0,0)" stroke-width="1" fill="transparent" stroke-dasharray="3 3" marker-end=""></path><path d="M 468 1488 L 468 1504" stroke="rgb(0,0,0)" stroke-width="1" fill="transparent" stroke-dasharray="3 3" marker-end=""></path><path d="M 108 1520 L 108 1536" stroke="rgb(0,0,0)" stroke-width="1" fill="transparent" stroke-dasharray="3 3" marker-end=""></path><path d="M 116 1520 L 116 1536" stroke="rgb(0,0,0)" stroke-width="1" fill="transparent" stroke-dasharray="3 3" marker-end=""></path><path d="M 316 1520 L 316 1536" stroke="rgb(0,0,0)" stroke-width="1" fill="transparent" stroke-dasharray="3 3" marker-end=""></path><path d="M 324 1520 L 324 1536" stroke="rgb(0,0,0)" stroke-width="1" fill="transparent" stroke-dasharray="3 3" marker-end=""></path><path d="M 348 1520 L 348 1536" stroke="rgb(0,0,0)" stroke-width="1" fill="transparent" stroke-dasharray="3 3" marker-end=""></path><path d="M 356 1520 L 356 1536" stroke="rgb(0,0,0)" stroke-width="1" fill="transparent" stroke-dasharray="3 3" marker-end=""></path><path d="M 420 1520 L 420 1536" stroke="rgb(0,0,0)" stroke-width="1" fill="transparent" stroke-dasharray="3 3" marker-end=""></path><path d="M 428 1520 L 428 1536" stroke="rgb(0,0,0)" stroke-width="1" fill="transparent" stroke-dasharray="3 3" marker-end=""></path><path d="M 460 1520 L 460 1536" stroke="rgb(0,0,0)" stroke-width="1" fill="transparent" stroke-dasharray="3 3" marker-end=""></path><path d="M 468 1520 L 468 1536" stroke="rgb(0,0,0)" stroke-width="1" fill="transparent" stroke-dasharray="3 3" marker-end=""></path><path d="M 492 1520 L 492 1536" stroke="rgb(0,0,0)" stroke-width="1" fill="transparent" stroke-dasharray="3 3" marker-end=""></path><path d="M 500 1520 L 500 1536" stroke="rgb(0,0,0)" stroke-width="1" fill="transparent" stroke-dasharray="3 3" marker-end=""></path><path d="M 108 1552 L 108 1568" stroke="rgb(0,0,0)" stroke-width="1" fill="transparent" stroke-dasharray="3 3" marker-end=""></path><path d="M 116 1552 L 116 1568" stroke="rgb(0,0,0)" stroke-width="1" fill="transparent" stroke-dasharray="3 3" marker-end=""></path><path d="M 364 1568 L 364 1584" stroke="rgb(0,0,0)" stroke-width="1" fill="transparent" stroke-dasharray="3 3" marker-end=""></path><path d="M 372 1568 L 372 1584" stroke="rgb(0,0,0)" stroke-width="1" fill="transparent" stroke-dasharray="3 3" marker-end=""></path><path d="M 92 1584 L 92 1600" stroke="rgb(0,0,0)" stroke-width="1" fill="transparent" stroke-dasharray="3 3" marker-end=""></path><path d="M 100 1584 L 100 1600" stroke="rgb(0,0,0)" stroke-width="1" fill="transparent" stroke-dasharray="3 3" marker-end=""></path><path d="M 168 1584 L 162 1596" stroke="rgb(0,0,0)" stroke-width="1" fill="transparent" stroke-dasharray="" marker-end="url(#triangle)"></path><text x="14" y="60" style="font-size:14px;font-family:monospace">Foo</text><text x="102" y="60" style="font-size:14px;font-family:monospace">Bar</text><text x="182" y="60" style="font-size:14px;font-family:monospace">Baz</text><text x="262" y="60" style="font-size:14px;font-family:monospace">Moo</text><text x="14" y="156" style="font-size:14px;font-family:monospace">Hello</text><text x="62" y="156" style="font-size:14px;font-family:monospace">here</text><text x="102" y="156" style="font-size:14px;font-family:monospace">and</text><text x="134" y="156" style="font-size:14px;font-family:monospace">there</text><text x="182" y="156" style="font-size:14px;font-family:monospace">and</text><text x="214" y="156" style="font-size:14px;font-family:monospace">everywhere</text><text x="30" y="220" style="font-size:14px;font-family:monospace">a</text><text x="70" y="220" style="font-size:14px;font-family:monospace">b</text><text x="222" y="236" style="font-size:14px;font-family:monospace">process</text><text x="38" y="252" style="font-size:14px;font-family:monospace">string</text><text x="102" y="252" style="font-size:14px;font-family:monospace">ne</text><text x="358" y="252" style="font-size:14px;font-family:monospace">process</text><text x="62" y="348" style="font-size:14px;font-family:monospace">another</text><text x="126" y="348" style="font-size:14px;font-family:monospace">process</text><text x="14" y="412" style="font-size:14px;font-family:monospace">User</text><text x="54" y="412" style="font-size:14px;font-family:monospace">code</text><text x="246" y="412" style="font-size:14px;font-family:monospace">OS</text><text x="270" y="412" style="font-size:14px;font-family:monospace">code</text><text x="14" y="476" style="font-size:14px;font-family:monospace">User</text><text x="54" y="476" style="font-size:14px;font-family:monospace">code</text><text x="142" y="476" style="font-size:14px;font-family:monospace">Mode</text><text x="230" y="476" style="font-size:14px;font-family:monospace">OS</text><text x="254" y="476" style="font-size:14px;font-family:monospace">code</text><text x="54" y="556" style="font-size:14px;font-family:monospace">User</text><text x="94" y="556" style="font-size:14px;font-family:monospace">code</text><text x="222" y="556" style="font-size:14px;font-family:monospace">OS</text><text x="246" y="556" style="font-size:14px;font-family:monospace">code</text><text x="30" y="604" style="font-size:14px;font-family:monospace">OS</text><text x="54" y="604" style="font-size:14px;font-family:monospace">API</text><text x="118" y="668" style="font-size:14px;font-family:monospace">Filesystem</text><text x="254" y="668" style="font-size:14px;font-family:monospace">Scheduler</text><text x="390" y="668" style="font-size:14px;font-family:monospace">MMU</text><text x="150" y="748" style="font-size:14px;font-family:monospace">IO</text><text x="334" y="748" style="font-size:14px;font-family:monospace">Network</text><text x="254" y="828" style="font-size:14px;font-family:monospace">HAL</text><text x="86" y="924" style="font-size:14px;font-family:monospace">device</text><text x="86" y="940" style="font-size:14px;font-family:monospace">loads</text><text x="30" y="956" style="font-size:14px;font-family:monospace">ooo</text><text x="30" y="972" style="font-size:14px;font-family:monospace">ooo</text><text x="30" y="988" style="font-size:14px;font-family:monospace">ooo</text><text x="38" y="1068" style="font-size:14px;font-family:monospace">Loadable</text><text x="110" y="1068" style="font-size:14px;font-family:monospace">module</text><text x="166" y="1068" style="font-size:14px;font-family:monospace">C</text><text x="254" y="1068" style="font-size:14px;font-family:monospace">Loadable</text><text x="326" y="1068" style="font-size:14px;font-family:monospace">module</text><text x="382" y="1068" style="font-size:14px;font-family:monospace">A</text><text x="470" y="1068" style="font-size:14px;font-family:monospace">Loadable</text><text x="542" y="1068" style="font-size:14px;font-family:monospace">module</text><text x="598" y="1068" style="font-size:14px;font-family:monospace">B</text><text x="494" y="1084" style="font-size:14px;font-family:monospace">instrumented</text><text x="302" y="1116" style="font-size:14px;font-family:monospace">A</text><text x="318" y="1116" style="font-size:14px;font-family:monospace">o</text><text x="134" y="1132" style="font-size:14px;font-family:monospace">calls</text><text x="254" y="1164" style="font-size:14px;font-family:monospace">A</text><text x="270" y="1164" style="font-size:14px;font-family:monospace">instrumented</text><text x="374" y="1164" style="font-size:14px;font-family:monospace">o</text><text x="470" y="1180" style="font-size:14px;font-family:monospace">calls</text><text x="358" y="1244" style="font-size:14px;font-family:monospace">Base</text><text x="406" y="1244" style="font-size:14px;font-family:monospace">Class</text><text x="462" y="1244" style="font-size:14px;font-family:monospace">Derived</text><text x="526" y="1244" style="font-size:14px;font-family:monospace">A</text><text x="358" y="1276" style="font-size:14px;font-family:monospace">Base</text><text x="406" y="1276" style="font-size:14px;font-family:monospace">Class</text><text x="462" y="1276" style="font-size:14px;font-family:monospace">Derived</text><text x="526" y="1276" style="font-size:14px;font-family:monospace">B</text><text x="46" y="1292" style="font-size:14px;font-family:monospace">Something</text><text x="430" y="1308" style="font-size:14px;font-family:monospace">Base</text><text x="478" y="1308" style="font-size:14px;font-family:monospace">Class</text><text x="534" y="1308" style="font-size:14px;font-family:monospace">Derived</text><text x="46" y="1324" style="font-size:14px;font-family:monospace">Something</text><text x="134" y="1324" style="font-size:14px;font-family:monospace">else</text><text x="438" y="1340" style="font-size:14px;font-family:monospace">Base</text><text x="486" y="1340" style="font-size:14px;font-family:monospace">Class</text><text x="542" y="1340" style="font-size:14px;font-family:monospace">Derived</text><text x="366" y="1372" style="font-size:14px;font-family:monospace">Base</text><text x="414" y="1372" style="font-size:14px;font-family:monospace">Class</text><text x="470" y="1372" style="font-size:14px;font-family:monospace">Derived</text><text x="534" y="1372" style="font-size:14px;font-family:monospace">C</text><text x="190" y="1404" style="font-size:14px;font-family:monospace">Base</text><text x="238" y="1404" style="font-size:14px;font-family:monospace">Class</text><text x="302" y="1468" style="font-size:14px;font-family:monospace">The</text><text x="342" y="1468" style="font-size:14px;font-family:monospace">Latest</text><text x="6" y="1500" style="font-size:14px;font-family:monospace">With</text><text x="54" y="1500" style="font-size:14px;font-family:monospace">Some</text><text x="102" y="1500" style="font-size:14px;font-family:monospace">fantasy</text><text x="366" y="1500" style="font-size:14px;font-family:monospace">The</text><text x="406" y="1500" style="font-size:14px;font-family:monospace">Latest</text><text x="470" y="1500" style="font-size:14px;font-family:monospace">Greatest</text><text x="70" y="1532" style="font-size:14px;font-family:monospace">More</text><text x="118" y="1532" style="font-size:14px;font-family:monospace">Stuff</text><text x="302" y="1532" style="font-size:14px;font-family:monospace">I</text><text x="326" y="1532" style="font-size:14px;font-family:monospace">Am</text><text x="358" y="1532" style="font-size:14px;font-family:monospace">Running</text><text x="430" y="1532" style="font-size:14px;font-family:monospace">Out</text><text x="470" y="1532" style="font-size:14px;font-family:monospace">Of</text><text x="502" y="1532" style="font-size:14px;font-family:monospace">Ideas</text><text x="70" y="1564" style="font-size:14px;font-family:monospace">More</text><text x="118" y="1564" style="font-size:14px;font-family:monospace">Stuff</text><text x="326" y="1580" style="font-size:14px;font-family:monospace">Last</text><text x="374" y="1580" style="font-size:14px;font-family:monospace">One</text><text x="54" y="1596" style="font-size:14px;font-family:monospace">More</text><text x="102" y="1596" style="font-size:14px;font-family:monospace">Stuff</text></svg>
